# xmcd
#
# Track frame offsets:
#	150
#	12395
#	22719
#	36192
#	44200
#	57795
#	68987
#	81482
#	93602
#	110795
#	124952
#	136510
#
# Disc length: 1972 seconds
#
# Revision: 1
# Processed by: cddbd v1.5PL3 Copyright (c) Steve Scherf et al.
# Submitted via: EasyCDDAExtractor 7.0.0.1
#
DISCID=a707b20c
DTITLE=Ralph Stanley II and John Rigsby - Clinch Mountain Echoes
DYEAR=1996
DGENRE=Bluegrass
TTITLE0=(Say) Won't You Be Mine
TTITLE1=We'll Be Sweethearts In Heaven
TTITLE2=Mother No Longer Awaits Me At Home
TTITLE3=Daybreak In Dixie
TTITLE4=The Lonesome River
TTITLE5=Let Me Be Your Friend
TTITLE6=How Mountain Girls Can Love
TTITLE7=Medicine Springs
TTITLE8=The Angels Are Singing In Heaven Tonight
TTITLE9=Memories Of Mother
TTITLE10=Poor White Folks
TTITLE11=Little Glass Of Wine
EXTD=
EXTT0=
EXTT1=
EXTT2=
EXTT3=
EXTT4=
EXTT5=
EXTT6=
EXTT7=
EXTT8=
EXTT9=
EXTT10=
EXTT11=
PLAYORDER=
